<?xml version="1.0" encoding="utf-8"?>
<!-- Generator: Adobe Illustrator 16.0.3, SVG Export Plug-In . SVG Version: 6.00 Build 0)  -->
<!DOCTYPE svg PUBLIC "-//W3C//DTD SVG 1.1//EN" "http://www.w3.org/Graphics/SVG/1.1/DTD/svg11.dtd">
<svg version="1.1" id="ring" xmlns="http://www.w3.org/2000/svg" xmlns:xlink="http://www.w3.org/1999/xlink" x="0px" y="0px"
	 width="505px" height="155px" viewBox="0 0 505 155" enable-background="new 0 0 505 155" xml:space="preserve">
<g>
	<polyline fill="none" stroke="#B3B3B3" points="-50.703,-52 550.912,-52 550.912,203 -50.703,203 	"/>
</g>
<g>
	<path fill="#12100B" d="M193.606,68.146c-9.631,0-15.309-6.88-15.309-16.031c0-9.189,5.81-16.28,15.104-16.28
		c3.236,0,6.331,0.447,9.757,2.385l0.636-7.588c-3.275-1.289-7.213-1.876-10.188-1.876c-15.309,0-24.754,8.644-24.754,24.022
		c0,15.176,10.137,22.453,24.754,22.453c3.417,0,6.97-0.633,10.266-1.419l-0.394-7.531
		C201.336,67.385,197.149,68.146,193.606,68.146z"/>
	<path fill="#12100B" d="M228.978,40.539c-4.518,0-8.269,2.061-10.463,5.273h-0.123V26.181h-8.656v48.289h8.656V58.243
		c0-4.252,1.351-11.011,7.616-11.011c5.552,0,5.622,5.468,5.622,9.523v17.714h8.654V53.548
		C240.283,46.06,236.853,40.539,228.978,40.539z"/>
	<rect x="248.17" y="27.008" fill="#12100B" width="8.669" height="8.249"/>
	<rect x="248.17" y="41.31" fill="#12100B" width="8.669" height="33.16"/>
	<path fill="#12100B" d="M286.355,66.994c-1.474,0.633-4.178,1.542-6.642,1.542c-6.067,0-8.974-4.689-8.974-10.812
		c0-6.239,3.416-10.493,8.792-10.493c2.646,0,4.31,0.516,5.877,1.217l0.768-6.832c-2.382-0.699-4.916-1.078-8.376-1.078
		c-10.418,0-16.104,7.597-16.104,17.186c0,10.1,5.496,17.505,16.403,17.505c3.574,0,6.141-0.325,8.66-1.085L286.355,66.994z"/>
	<path fill="#12100B" d="M320.475,67.053c-0.091-2.439-0.135-4.95-0.135-8.294v-4.27c0-9.762-4.207-13.95-14.347-13.95
		c-3.691,0-8.2,0.952-11.563,2.5l0.261,7.405c2.927-2.194,6.592-3.599,10.269-3.599c5.109,0,7.512,1.815,7.512,7.146h-4.808
		c-3.612,0-7.866,0.33-11.162,1.92c-3.29,1.611-5.681,4.51-5.681,9.47c0,6.319,5.736,9.848,11.619,9.848
		c3.935,0,8.276-2.052,10.266-5.735h0.138c0.062,1.052,0.062,3.233,0.378,4.975h7.635C320.665,71.896,320.521,69.563,320.475,67.053
		z M310.648,65.969c-1.368,1.796-3.416,2.965-6.067,2.965c-3.091,0-5.484-1.235-5.484-4.071c0-5.08,5.736-5.725,9.63-5.725h3.744
		C312.471,61.699,312.084,64.104,310.648,65.969z"/>
	<path fill="#12100B" d="M339.406,74.469c4.84,0,8.733-2.459,10.339-5.285h0.141c0,5.72-0.442,12.858-10.025,12.858
		c-2.701,0-7.04-1.452-9.68-2.896l-0.7,7.346c4.119,1.733,8.06,2.26,11.484,2.26c13.957,0,17.578-8.495,17.578-17.511V41.31h-8.279
		v4.503h-0.129c-2.399-3.797-5.813-5.273-10.201-5.273c-9.946,0-14.092,9.212-14.092,17.186
		C325.842,66.596,329.592,74.469,339.406,74.469z M342.635,47.232c5.051,0,7.251,4.633,7.251,10.291
		c0,5.527-2.2,10.242-7.632,10.242c-4.978,0-7.351-5.547-7.351-10.04C334.903,52.646,336.764,47.232,342.635,47.232z"/>
	<path fill="#12100B" d="M398.826,58.104c0-10.935-7.559-17.565-17.429-17.565c-9.812,0-17.376,6.63-17.376,17.565
		c0,9.523,6.39,17.125,17.376,17.125C392.439,75.229,398.826,67.627,398.826,58.104z M373.063,57.089
		c0-4.975,2.719-9.857,8.335-9.857c5.678,0,8.385,4.761,8.385,9.857c0,5.521-1.723,11.448-8.385,11.448
		C374.794,68.537,373.063,62.556,373.063,57.089z"/>
	<path fill="#12100B" d="M183.68,83.371h-11.427v44.93h9.035V111.26h3.806c9.69,0,17.372-3.809,17.372-14.304
		C202.465,86.21,193.515,83.371,183.68,83.371z M184.448,104.178h-3.16V90.462h3.16c4.663,0,8.61,1.813,8.61,7.015
		C193.058,102.688,188.974,104.178,184.448,104.178z"/>
	<path fill="#12100B" d="M226.449,94.394c-4.503,0-8.202,1.468-10.906,5.273h-0.13v-4.504h-8.193v33.138h8.648v-16.217
		c0-4.241,1.355-11,7.622-11c5.555,0,5.616,5.479,5.616,9.532v17.685h8.648V107.38C237.755,99.933,234.339,94.394,226.449,94.394z"
		/>
	<path fill="#12100B" d="M258.986,94.394c-10.33,0-15.437,7.915-15.437,17.499c0,10.885,6.398,17.183,17.376,17.183
		c4.649,0,8.271-0.889,11.426-2.628v-7.024c-3.226,1.811-6.855,3.354-11.045,3.354c-5.344,0-9.111-3.026-9.478-8.357h22.983
		C274.813,102.823,271.329,94.394,258.986,94.394z M251.829,108.489c0.366-4.455,2.833-7.784,7.688-7.784
		c4.837,0,6.762,3.595,7.028,7.784H251.829z"/>
	<path fill="#12100B" d="M300.825,111.383c0,4.255-1.368,11.002-7.644,11.002c-5.543,0-5.602-5.464-5.602-9.513v-17.71h-8.675
		v20.919c0,7.466,3.437,12.993,11.323,12.993c4.506,0,8.259-2.041,10.916-5.268h0.117v4.493h8.206V95.163h-8.643V111.383z"/>
	<path fill="#12100B" d="M356.639,94.394c-4.055,0-8.394,1.856-10.4,5.846c-1.863-4.113-5.165-5.846-9.797-5.846
		c-3.246,0-7.189,1.362-9.905,5.41h-0.135v-4.641h-8.068v33.138h8.669v-16.083c0-4.307,0.712-11.134,6.457-11.134
		c4.96,0,4.96,4.375,4.96,7.474v19.743h8.654v-16.083c0-4.307,0.706-11.134,6.46-11.134c4.983,0,4.983,4.375,4.983,7.474v19.743
		h8.663V107.38C367.18,99.993,364.859,94.394,356.639,94.394z"/>
	<path fill="#12100B" d="M403.569,112.606v-4.245c0-9.778-4.192-13.967-14.347-13.967c-3.686,0-8.188,0.962-11.563,2.514
		l0.267,7.392c2.906-2.175,6.601-3.595,10.271-3.595c5.101,0,7.491,1.802,7.491,7.138h-4.775c-3.612,0-7.881,0.322-11.171,1.925
		c-3.302,1.616-5.687,4.509-5.687,9.457c0,6.322,5.745,9.851,11.634,9.851c3.935,0,8.256-2.041,10.251-5.703h0.144
		c0.067,1.025,0.067,3.198,0.393,4.928h7.605c-0.182-2.558-0.319-4.885-0.381-7.389C403.625,118.463,403.569,115.94,403.569,112.606
		z M393.875,119.812c-1.359,1.815-3.419,2.966-6.064,2.966c-3.094,0-5.499-1.219-5.499-4.059c0-5.087,5.751-5.741,9.621-5.741h3.756
		C395.688,115.568,395.299,117.931,393.875,119.812z"/>
	<path fill="#12100B" d="M426.219,122.386c-3.299,0-4.066-2.634-4.066-5.464v-15.444h7.679v-6.315h-7.679v-9.417l-8.654,2.788v6.63
		h-6.401v6.315h6.401v16.862c0,6.56,3.741,10.736,10.515,10.736c2.584,0,4.582-0.245,6.401-0.775l-0.264-6.813
		C429.254,122.061,427.771,122.386,426.219,122.386z"/>
	<rect x="435.544" y="95.163" fill="#12100B" width="8.669" height="33.138"/>
	<rect x="435.544" y="81.341" fill="#12100B" width="8.669" height="8.241"/>
	<path fill="#12100B" d="M474.702,120.842c-1.474,0.646-4.204,1.544-6.656,1.544c-6.064,0-8.965-4.692-8.965-10.803
		c0-6.258,3.419-10.499,8.786-10.499c2.631,0,4.313,0.507,5.856,1.225l0.788-6.829c-2.391-0.697-4.916-1.085-8.402-1.085
		c-10.403,0-16.078,7.591-16.078,17.188c0,10.099,5.496,17.493,16.4,17.493c3.548,0,6.144-0.311,8.672-1.083L474.702,120.842z"/>
	<g>
		<path fill="#E40520" d="M56.828,40.981c0,0-19.828,7.154-18.4,27.801c0,0-0.804,23.208,27.094,27.604V82.992
			c0,0-13.765-2.257-13.5-17.457c0,0,1.304-13.037,17.373-13.831l10.775-0.037V38.897C80.17,38.897,66.184,36.64,56.828,40.981z"/>
		<path fill="#E40520" d="M76.351,13.075c-34.834,0-63.082,28.235-63.082,63.082c0,34.838,28.248,63.086,63.082,63.086
			c34.847,0,63.086-28.248,63.086-63.086C139.438,41.31,111.198,13.075,76.351,13.075z M82.713,126.306V73.482
			c18.053-1.274,17.216,11.038,17.216,11.038c0.693,12.557-12.85,13.934-12.85,13.934v11.732
			c15.507-0.253,22.465-10.45,22.465-10.45c10.062-19.124-3.671-32.298-3.671-32.298c-14.087-12.807-36.706-5.244-36.706-5.244
			v63.999c-24.511-3.492-43.362-24.563-43.362-50.035c0-27.916,22.63-50.546,50.546-50.546s50.544,22.63,50.544,50.546
			C126.896,101.913,107.628,123.175,82.713,126.306z"/>
	</g>
</g>
</svg>
